<?xml version="1.0" encoding="UTF-8"?>
<svg width="78px" height="78px" viewBox="0 0 78 78" version="1.1" xmlns="http://www.w3.org/2000/svg" xmlns:xlink="http://www.w3.org/1999/xlink">
    <!-- Generator: Sketch 52.6 (67491) - http://www.bohemiancoding.com/sketch -->
    <title>Untitled</title>
    <desc>Created with Sketch.</desc>
    <g id="Page-1" stroke="none" stroke-width="1" fill="none" fill-rule="evenodd">
        <g id="Group" transform="translate(39.131257, 39.099935) scale(-1, 1) rotate(180.000000) translate(-39.131257, -39.099935) translate(0.631257, 0.599935)">
            <path d="M0.252025145,71.3545678 C0.252025145,74.3702957 2.7587471,76.8164993 5.85109081,76.8164993 L70.4202708,76.8164993 C73.5125126,76.8164993 76.0193364,74.3702957 76.0193364,71.3545678 L76.0193364,6.03043701 C76.0193364,3.01369027 73.5125126,0.568505466 70.4202708,0.568505466 L5.85109081,0.568505466 C2.7587471,0.568505466 0.252025145,3.01369027 0.252025145,6.03043701 L0.252025145,71.3545678 Z" id="path14-copy" fill="#000000"></path>
            <path d="M23.2194422,12.9890254 L23.2194422,47.4192651 L11.7754679,47.4192651 L11.7754679,12.9890254 L23.2194422,12.9890254 Z M17.4974041,52.1201328 C21.4881495,52.1201328 23.9720497,54.7639889 23.9720497,58.0680449 C23.8976753,61.4464752 21.4881495,64.0169757 17.573103,64.0169757 C13.658464,64.0169757 11.0989668,61.4464752 11.0989668,58.0680449 C11.0989668,54.7639889 13.5823576,52.1201328 17.422826,52.1201328 L17.4972004,52.1201328 L17.4974041,52.1201328 Z" id="path28" fill="#FFFFFF" fill-rule="nonzero"></path>
            <path d="M29.5517577,12.9890254 L40.9956301,12.9890254 L40.9956301,32.2163286 C40.9956301,33.2453438 41.0700044,34.2733403 41.3721885,35.0089334 C42.199476,37.0649263 44.0824721,39.1942747 47.2438923,39.1942747 C51.3849146,39.1942747 53.0414254,36.0369298 53.0414254,31.4083988 L53.0414254,12.9890254 L64.4843809,12.9890254 L64.4843809,32.7308362 C64.4843809,43.3062605 58.8385511,48.2271949 51.3093177,48.2271949 C45.1356336,48.2271949 42.42535,44.7764278 40.9195237,42.4259939 L40.9959357,42.4259939 L40.9959357,47.4192651 L29.5520633,47.4192651 C29.7022384,44.1885646 29.5517577,12.9890254 29.5517577,12.9890254 Z" id="path30" fill="#FFFFFF"></path>
        </g>
    </g>
</svg>